{
    "asset" : {
        "generator" : "Khronos glTF Blender I/O v3.3.27",
        "version" : "2.0"
    },
    "extensionsUsed" : [
        "KHR_materials_specular",
        "KHR_materials_ior"
    ],
    "scene" : 0,
    "scenes" : [
        {
            "name" : "Scene",
            "nodes" : [
                0,
                1,
                2,
                3,
                4,
                5,
                6
            ]
        }
    ],
    "nodes" : [
        {
            "mesh" : 0,
            "name" : "_4E0002_ARD-node",
            "translation" : [
                0.003775009885430336,
                0.03705518692731857,
                0.046356916427612305
            ]
        },
        {
            "mesh" : 1,
            "name" : "Plano",
            "scale" : [
                0.28849244117736816,
                0.28849244117736816,
                0.28849244117736816
            ],
            "translation" : [
                0,
                -0.20588308572769165,
                0.35472819209098816
            ]
        },
        {
            "mesh" : 2,
            "name" : "Plano.001",
            "rotation" : [
                0,
                -0.7071068286895752,
                0,
                0.7071068286895752
            ],
            "scale" : [
                0.28849244117736816,
                0.28849244117736816,
                0.28849244117736816
            ],
            "translation" : [
                -0.39243802428245544,
                -0.20588308572769165,
                -0.03455248847603798
            ]
        },
        {
            "mesh" : 3,
            "name" : "Plano.002",
            "rotation" : [
                0,
                0,
                0.7071067094802856,
                0.7071068286895752
            ],
            "scale" : [
                0.28849244117736816,
                0.28849244117736816,
                0.28849244117736816
            ],
            "translation" : [
                0.23209720849990845,
                0.024593546986579895,
                0.35472819209098816
            ]
        },
        {
            "mesh" : 4,
            "name" : "Texto",
            "rotation" : [
                0.7071067094802856,
                0,
                0,
                0.7071068286895752
            ],
            "scale" : [
                0.05617143213748932,
                0.05617143213748932,
                0.05617143213748932
            ],
            "translation" : [
                -0.052106522023677826,
                -0.20658579468727112,
                0.3277724087238312
            ]
        },
        {
            "mesh" : 5,
            "name" : "Texto.001",
            "rotation" : [
                0.7071067094802856,
                0,
                0,
                0.7071068286895752
            ],
            "scale" : [
                0.05617143213748932,
                0.05617143213748932,
                0.05617143213748932
            ],
            "translation" : [
                -0.44148218631744385,
                -0.20658579468727112,
                -0.0025169290602207184
            ]
        },
        {
            "mesh" : 6,
            "name" : "Texto.002",
            "rotation" : [
                0.7071067094802856,
                0,
                0,
                0.7071068286895752
            ],
            "scale" : [
                0.05617143213748932,
                0.05617143213748932,
                0.05617143213748932
            ],
            "translation" : [
                0.2579519748687744,
                -0.05776529759168625,
                0.27881932258605957
            ]
        }
    ],
    "materials" : [
        {
            "doubleSided" : true,
            "extensions" : {
                "KHR_materials_specular" : {
                    "specularColorFactor" : [
                        0,
                        0,
                        0
                    ]
                },
                "KHR_materials_ior" : {
                    "ior" : 0
                }
            },
            "name" : "_4E0002_ARD_front",
            "pbrMetallicRoughness" : {
                "baseColorTexture" : {
                    "index" : 0
                },
                "metallicFactor" : 0,
                "roughnessFactor" : 0.5
            }
        },
        {
            "doubleSided" : true,
            "extensions" : {
                "KHR_materials_specular" : {
                    "specularColorFactor" : [
                        0,
                        0,
                        0
                    ]
                },
                "KHR_materials_ior" : {
                    "ior" : 0
                }
            },
            "name" : "_4E0002_ARD_back",
            "pbrMetallicRoughness" : {
                "baseColorTexture" : {
                    "index" : 1
                },
                "metallicFactor" : 0,
                "roughnessFactor" : 0.5
            }
        },
        {
            "doubleSided" : true,
            "extensions" : {
                "KHR_materials_specular" : {
                    "specularColorFactor" : [
                        0,
                        0,
                        0
                    ]
                },
                "KHR_materials_ior" : {
                    "ior" : 0
                }
            },
            "name" : "_4E0002_ARD_edge",
            "pbrMetallicRoughness" : {
                "baseColorTexture" : {
                    "index" : 2
                },
                "metallicFactor" : 0,
                "roughnessFactor" : 0.5
            }
        },
        {
            "doubleSided" : true,
            "name" : "Material.001",
            "pbrMetallicRoughness" : {
                "baseColorFactor" : [
                    0.4902293384075165,
                    0.021092573180794716,
                    0,
                    1
                ],
                "metallicFactor" : 0
            }
        }
    ],
    "meshes" : [
        {
            "name" : "_4E0002_ARD-geom",
            "primitives" : [
                {
                    "attributes" : {
                        "POSITION" : 0,
                        "NORMAL" : 1,
                        "TEXCOORD_0" : 2
                    },
                    "indices" : 3,
                    "material" : 0
                },
                {
                    "attributes" : {
                        "POSITION" : 4,
                        "NORMAL" : 5,
                        "TEXCOORD_0" : 6
                    },
                    "indices" : 7,
                    "material" : 1
                },
                {
                    "attributes" : {
                        "POSITION" : 8,
                        "NORMAL" : 9,
                        "TEXCOORD_0" : 10
                    },
                    "indices" : 11,
                    "material" : 2
                }
            ]
        },
        {
            "name" : "Plano",
            "primitives" : [
                {
                    "attributes" : {
                        "POSITION" : 12,
                        "NORMAL" : 13,
                        "TEXCOORD_0" : 14
                    },
                    "indices" : 15,
                    "material" : 3
                }
            ]
        },
        {
            "name" : "Plano.001",
            "primitives" : [
                {
                    "attributes" : {
                        "POSITION" : 16,
                        "NORMAL" : 17,
                        "TEXCOORD_0" : 18
                    },
                    "indices" : 19,
                    "material" : 3
                }
            ]
        },
        {
            "name" : "Plano.002",
            "primitives" : [
                {
                    "attributes" : {
                        "POSITION" : 20,
                        "NORMAL" : 21,
                        "TEXCOORD_0" : 22
                    },
                    "indices" : 23,
                    "material" : 3
                }
            ]
        },
        {
            "name" : "Texto",
            "primitives" : [
                {
                    "attributes" : {
                        "POSITION" : 24,
                        "NORMAL" : 25,
                        "TEXCOORD_0" : 26
                    },
                    "indices" : 27,
                    "material" : 3
                }
            ]
        },
        {
            "name" : "Texto.001",
            "primitives" : [
                {
                    "attributes" : {
                        "POSITION" : 28,
                        "NORMAL" : 29,
                        "TEXCOORD_0" : 30
                    },
                    "indices" : 31,
                    "material" : 3
                }
            ]
        },
        {
            "name" : "Texto.002",
            "primitives" : [
                {
                    "attributes" : {
                        "POSITION" : 32,
                        "NORMAL" : 33,
                        "TEXCOORD_0" : 34
                    },
                    "indices" : 35,
                    "material" : 3
                }
            ]
        }
    ],
    "textures" : [
        {
            "sampler" : 0,
            "source" : 0
        },
        {
            "sampler" : 0,
            "source" : 1
        },
        {
            "sampler" : 0,
            "source" : 2
        }
    ],
    "images" : [
        {
            "bufferView" : 4,
            "mimeType" : "image/png",
            "name" : "bbb"
        },
        {
            "bufferView" : 9,
            "mimeType" : "image/png",
            "name" : "ccc"
        },
        {
            "bufferView" : 14,
            "mimeType" : "image/png",
            "name" : "_4E0002_ARD-I1"
        }
    ],
    "accessors" : [
        {
            "bufferView" : 0,
            "componentType" : 5126,
            "count" : 3255,
            "max" : [
                0.2302026003599167,
                0.19391322135925293,
                0.1496277004480362
            ],
            "min" : [
                -0.23389770090579987,
                -0.24534684419631958,
                -0.2404201626777649
            ],
            "type" : "VEC3"
        },
        {
            "bufferView" : 1,
            "componentType" : 5126,
            "count" : 3255,
            "type" : "VEC3"
        },
        {
            "bufferView" : 2,
            "componentType" : 5126,
            "count" : 3255,
            "type" : "VEC2"
        },
        {
            "bufferView" : 3,
            "componentType" : 5123,
            "count" : 5550,
            "type" : "SCALAR"
        },
        {
            "bufferView" : 5,
            "componentType" : 5126,
            "count" : 3608,
            "max" : [
                0.2302026003599167,
                0.1934657096862793,
                0.14750857651233673
            ],
            "min" : [
                -0.23389770090579987,
                -0.24470847845077515,
                -0.23835968971252441
            ],
            "type" : "VEC3"
        },
        {
            "bufferView" : 6,
            "componentType" : 5126,
            "count" : 3608,
            "type" : "VEC3"
        },
        {
            "bufferView" : 7,
            "componentType" : 5126,
            "count" : 3608,
            "type" : "VEC2"
        },
        {
            "bufferView" : 8,
            "componentType" : 5123,
            "count" : 5550,
            "type" : "SCALAR"
        },
        {
            "bufferView" : 10,
            "componentType" : 5126,
            "count" : 3670,
            "max" : [
                0.2302026003599167,
                0.19391322135925293,
                0.1496277004480362
            ],
            "min" : [
                -0.23389770090579987,
                -0.24534684419631958,
                -0.2395181655883789
            ],
            "type" : "VEC3"
        },
        {
            "bufferView" : 11,
            "componentType" : 5126,
            "count" : 3670,
            "type" : "VEC3"
        },
        {
            "bufferView" : 12,
            "componentType" : 5126,
            "count" : 3670,
            "type" : "VEC2"
        },
        {
            "bufferView" : 13,
            "componentType" : 5123,
            "count" : 7146,
            "type" : "SCALAR"
        },
        {
            "bufferView" : 15,
            "componentType" : 5126,
            "count" : 144,
            "max" : [
                0.8085819482803345,
                0.0010000001639127731,
                -0.2634059488773346
            ],
            "min" : [
                -0.798839271068573,
                -0.0010000001639127731,
                -0.4909448027610779
            ],
            "type" : "VEC3"
        },
        {
            "bufferView" : 16,
            "componentType" : 5126,
            "count" : 144,
            "type" : "VEC3"
        },
        {
            "bufferView" : 17,
            "componentType" : 5126,
            "count" : 144,
            "type" : "VEC2"
        },
        {
            "bufferView" : 18,
            "componentType" : 5123,
            "count" : 216,
            "type" : "SCALAR"
        },
        {
            "bufferView" : 19,
            "componentType" : 5126,
            "count" : 144,
            "max" : [
                0.8085819482803345,
                0.0010000001639127731,
                -0.2634059190750122
            ],
            "min" : [
                -0.5455295443534851,
                -0.0010000001639127731,
                -0.4909448027610779
            ],
            "type" : "VEC3"
        },
        {
            "bufferView" : 20,
            "componentType" : 5126,
            "count" : 144,
            "type" : "VEC3"
        },
        {
            "bufferView" : 21,
            "componentType" : 5126,
            "count" : 144,
            "type" : "VEC2"
        },
        {
            "bufferView" : 22,
            "componentType" : 5123,
            "count" : 216,
            "type" : "SCALAR"
        },
        {
            "bufferView" : 23,
            "componentType" : 5126,
            "count" : 144,
            "max" : [
                0.2729598879814148,
                0.0010000001639127731,
                -0.2634059488773346
            ],
            "min" : [
                -0.798839271068573,
                -0.001000040560029447,
                -0.4909448027610779
            ],
            "type" : "VEC3"
        },
        {
            "bufferView" : 24,
            "componentType" : 5126,
            "count" : 144,
            "type" : "VEC3"
        },
        {
            "bufferView" : 25,
            "componentType" : 5126,
            "count" : 144,
            "type" : "VEC2"
        },
        {
            "bufferView" : 26,
            "componentType" : 5123,
            "count" : 216,
            "type" : "SCALAR"
        },
        {
            "bufferView" : 27,
            "componentType" : 5126,
            "count" : 1524,
            "max" : [
                1.4240000247955322,
                0.009999999776482582,
                0.009000000543892384
            ],
            "min" : [
                0.01100000087171793,
                -0.009999999776482582,
                -0.6910000443458557
            ],
            "type" : "VEC3"
        },
        {
            "bufferView" : 28,
            "componentType" : 5126,
            "count" : 1524,
            "type" : "VEC3"
        },
        {
            "bufferView" : 29,
            "componentType" : 5126,
            "count" : 1524,
            "type" : "VEC2"
        },
        {
            "bufferView" : 30,
            "componentType" : 5123,
            "count" : 2856,
            "type" : "SCALAR"
        },
        {
            "bufferView" : 31,
            "componentType" : 5126,
            "count" : 2830,
            "max" : [
                1.4700000286102295,
                0.009999999776482582,
                0.009000000543892384
            ],
            "min" : [
                0.06400000303983688,
                -0.009999999776482582,
                -0.6910000443458557
            ],
            "type" : "VEC3"
        },
        {
            "bufferView" : 32,
            "componentType" : 5126,
            "count" : 2830,
            "type" : "VEC3"
        },
        {
            "bufferView" : 33,
            "componentType" : 5126,
            "count" : 2830,
            "type" : "VEC2"
        },
        {
            "bufferView" : 34,
            "componentType" : 5123,
            "count" : 5220,
            "type" : "SCALAR"
        },
        {
            "bufferView" : 35,
            "componentType" : 5126,
            "count" : 966,
            "max" : [
                1.2999999523162842,
                0.009999999776482582,
                0.009000000543892384
            ],
            "min" : [
                0.06400000303983688,
                -0.009999999776482582,
                -0.6910000443458557
            ],
            "type" : "VEC3"
        },
        {
            "bufferView" : 36,
            "componentType" : 5126,
            "count" : 966,
            "type" : "VEC3"
        },
        {
            "bufferView" : 37,
            "componentType" : 5126,
            "count" : 966,
            "type" : "VEC2"
        },
        {
            "bufferView" : 38,
            "componentType" : 5123,
            "count" : 1824,
            "type" : "SCALAR"
        }
    ],
    "bufferViews" : [
        {
            "buffer" : 0,
            "byteLength" : 39060,
            "byteOffset" : 0,
            "target" : 34962
        },
        {
            "buffer" : 0,
            "byteLength" : 39060,
            "byteOffset" : 39060,
            "target" : 34962
        },
        {
            "buffer" : 0,
            "byteLength" : 26040,
            "byteOffset" : 78120,
            "target" : 34962
        },
        {
            "buffer" : 0,
            "byteLength" : 11100,
            "byteOffset" : 104160,
            "target" : 34963
        },
        {
            "buffer" : 0,
            "byteLength" : 391698,
            "byteOffset" : 115260
        },
        {
            "buffer" : 0,
            "byteLength" : 43296,
            "byteOffset" : 506960,
            "target" : 34962
        },
        {
            "buffer" : 0,
            "byteLength" : 43296,
            "byteOffset" : 550256,
            "target" : 34962
        },
        {
            "buffer" : 0,
            "byteLength" : 28864,
            "byteOffset" : 593552,
            "target" : 34962
        },
        {
            "buffer" : 0,
            "byteLength" : 11100,
            "byteOffset" : 622416,
            "target" : 34963
        },
        {
            "buffer" : 0,
            "byteLength" : 281265,
            "byteOffset" : 633516
        },
        {
            "buffer" : 0,
            "byteLength" : 44040,
            "byteOffset" : 914784,
            "target" : 34962
        },
        {
            "buffer" : 0,
            "byteLength" : 44040,
            "byteOffset" : 958824,
            "target" : 34962
        },
        {
            "buffer" : 0,
            "byteLength" : 29360,
            "byteOffset" : 1002864,
            "target" : 34962
        },
        {
            "buffer" : 0,
            "byteLength" : 14292,
            "byteOffset" : 1032224,
            "target" : 34963
        },
        {
            "buffer" : 0,
            "byteLength" : 1618,
            "byteOffset" : 1046516
        },
        {
            "buffer" : 0,
            "byteLength" : 1728,
            "byteOffset" : 1048136,
            "target" : 34962
        },
        {
            "buffer" : 0,
            "byteLength" : 1728,
            "byteOffset" : 1049864,
            "target" : 34962
        },
        {
            "buffer" : 0,
            "byteLength" : 1152,
            "byteOffset" : 1051592,
            "target" : 34962
        },
        {
            "buffer" : 0,
            "byteLength" : 432,
            "byteOffset" : 1052744,
            "target" : 34963
        },
        {
            "buffer" : 0,
            "byteLength" : 1728,
            "byteOffset" : 1053176,
            "target" : 34962
        },
        {
            "buffer" : 0,
            "byteLength" : 1728,
            "byteOffset" : 1054904,
            "target" : 34962
        },
        {
            "buffer" : 0,
            "byteLength" : 1152,
            "byteOffset" : 1056632,
            "target" : 34962
        },
        {
            "buffer" : 0,
            "byteLength" : 432,
            "byteOffset" : 1057784,
            "target" : 34963
        },
        {
            "buffer" : 0,
            "byteLength" : 1728,
            "byteOffset" : 1058216,
            "target" : 34962
        },
        {
            "buffer" : 0,
            "byteLength" : 1728,
            "byteOffset" : 1059944,
            "target" : 34962
        },
        {
            "buffer" : 0,
            "byteLength" : 1152,
            "byteOffset" : 1061672,
            "target" : 34962
        },
        {
            "buffer" : 0,
            "byteLength" : 432,
            "byteOffset" : 1062824,
            "target" : 34963
        },
        {
            "buffer" : 0,
            "byteLength" : 18288,
            "byteOffset" : 1063256,
            "target" : 34962
        },
        {
            "buffer" : 0,
            "byteLength" : 18288,
            "byteOffset" : 1081544,
            "target" : 34962
        },
        {
            "buffer" : 0,
            "byteLength" : 12192,
            "byteOffset" : 1099832,
            "target" : 34962
        },
        {
            "buffer" : 0,
            "byteLength" : 5712,
            "byteOffset" : 1112024,
            "target" : 34963
        },
        {
            "buffer" : 0,
            "byteLength" : 33960,
            "byteOffset" : 1117736,
            "target" : 34962
        },
        {
            "buffer" : 0,
            "byteLength" : 33960,
            "byteOffset" : 1151696,
            "target" : 34962
        },
        {
            "buffer" : 0,
            "byteLength" : 22640,
            "byteOffset" : 1185656,
            "target" : 34962
        },
        {
            "buffer" : 0,
            "byteLength" : 10440,
            "byteOffset" : 1208296,
            "target" : 34963
        },
        {
            "buffer" : 0,
            "byteLength" : 11592,
            "byteOffset" : 1218736,
            "target" : 34962
        },
        {
            "buffer" : 0,
            "byteLength" : 11592,
            "byteOffset" : 1230328,
            "target" : 34962
        },
        {
            "buffer" : 0,
            "byteLength" : 7728,
            "byteOffset" : 1241920,
            "target" : 34962
        },
        {
            "buffer" : 0,
            "byteLength" : 3648,
            "byteOffset" : 1249648,
            "target" : 34963
        }
    ],
    "samplers" : [
        {
            "magFilter" : 9729,
            "minFilter" : 9987
        }
    ],
    "buffers" : [
        {
            "byteLength" : 1253296,
            "uri" : "data:application/octet-stream;base64,"
        }
    ]
}
